<?xml version="1.0" standalone="yes"?>
<svg xmlns="http://www.w3.org/2000/svg" width="200" height="200" viewBox="0 0 200 200">
<path style="fill:#112563; stroke:none;" d="M37 126C31.9048 122.376 27.2137 120.181 21 122C24.0212 133.984 31.5534 141.318 25.5262 154C24.5474 156.06 22.1596 159.944 25.3333 161.356C33.5166 164.999 40.0036 153.199 45.3248 150.028C48.4916 148.14 53.4548 149 57 149C56.7087 155.784 54.1199 164.775 58.7384 170.772C63.3819 176.8 78.2207 174.014 85 174C87.9377 173.994 91.2992 174.306 93.7716 172.397C100.899 166.892 89.0441 154.074 99.9907 153.059C101.639 152.906 103.347 153.001 105 153C105 158.492 103.658 166.265 107.514 170.772C112.784 176.93 128.633 174.099 136 173.996C139.354 173.949 142.831 173.824 144.907 170.772C148.646 165.274 144.121 160.867 141.984 156C140.584 152.812 140.674 148.398 141.214 145.001C142.347 137.868 146.93 139.401 151.996 136.821C156.463 134.546 159.207 129.863 159.815 125C160.964 115.801 156.703 106.764 152.279 99C150.03 95.0528 145.835 90.8023 146.242 86C146.68 80.8334 148.56 72.5721 150.985 68C155.135 60.173 161.655 52.7041 157.852 43.0008C155.503 37.0076 149.703 34.3367 144 32.3449C131.651 28.0317 117.992 27.199 105 28.0895C100.463 28.4005 93.93 31.1074 89.5756 29.561C86.5022 28.4695 83.8788 25.8646 81 24.3241C76.6094 21.9746 71.864 20.7337 67 19.8048C64.1308 19.2569 60.0674 18.271 57.4738 20.179C54.8341 22.1209 56.3338 25.5115 57.1427 28C59.0119 33.7502 60.7369 39.9097 59.6713 46C58.5028 52.6787 54.1044 58.3224 52.669 65C51.3206 71.2727 52.5218 79.1412 50.0656 85C48.1309 89.6147 44.4625 93.5568 42.1204 98C37.4701 106.822 35.7842 116.165 37 126z"/>
<path style="fill:#2f576d; stroke:none;" d="M60 23C61.8063 30.8079 63.9776 37.8817 64 46C71.531 41.6676 77.787 36.2362 86 33C79.8632 25.841 69.1096 23.0251 60 23M83 91C82.814 81.9876 80.8914 73.001 86.6489 65.0154C91.9615 57.647 100.231 59.2483 108 56.9568C124.111 52.2049 137.275 39.3812 155 45C149.75 36.3882 138.358 34.122 129 32.7284C107.799 29.5712 84.3305 31.429 68.0008 47.0401C60.4584 54.2506 55.5176 62.3604 55.0394 73C54.9065 75.9564 54.4633 79.9782 56.6034 82.3511C61.9993 88.3339 75.4479 90.0406 83 91z"/>
<path style="fill:#8f9da5; stroke:none;" d="M142 43C144.89 44.2129 147.874 43.9983 151 44C148.11 42.7871 145.126 43.0017 142 43z"/>
<path style="fill:#112563; stroke:none;" d="M103.224 44.8009C98.4024 46.5849 100.881 54.039 105.856 52.338C110.749 50.6653 108.2 42.9596 103.224 44.8009z"/>
<path style="fill:#8f9da5; stroke:none;" d="M137 44L138 45L137 44z"/>
<path style="fill:#bdc1c5; stroke:none;" d="M138.667 44.3333C138.222 44.7778 139.278 44.7222 139.333 44.6667C139.778 44.2222 138.722 44.2778 138.667 44.3333z"/>
<path style="fill:#fefefe; stroke:none;" d="M146 67C142.374 69.283 142.109 73.4781 139.867 76.9992C135.515 83.8329 127.202 88.2179 119 87.6103C110.213 86.9594 102.186 81.4404 97.7647 74C96 71.0302 93.4804 65.5484 97.3187 63.0316C101.148 60.5205 108.772 63.4066 113 63.831C123.887 64.9237 136.382 66.3935 146.985 62.6559C151.614 61.0241 158.568 49.3563 153.393 45.179C148.046 40.8628 134.481 45.2409 129 47.4529C121.181 50.6084 114.164 55.3849 106 57.7022C100.535 59.2533 93.9129 57.9865 89.3287 61.804C83.5818 66.5898 82.9697 74.0944 83.0008 81C83.0129 83.6876 82.6968 87.1539 84.3179 89.4861C87.5741 94.1706 98.0719 92.7037 103 93.2855C111.789 94.3231 120.243 93.9595 129 92.7145C132.342 92.2393 136.775 91.7799 139.301 89.2971C144.271 84.4122 145.167 73.5543 146 67z"/>
<path style="fill:#bdc1c5; stroke:none;" d="M153 44L154 45L153 44M134 45L135 46L134 45M131 46L132 47L131 46z"/>
<path style="fill:#8f9da5; stroke:none;" d="M128 47L129 48L128 47M126 48L127 49L126 48M145.667 48.3333C145.222 48.7778 146.278 48.7222 146.333 48.6667C146.778 48.2222 145.722 48.2777 145.667 48.3333M124 49L125 50L124 49z"/>
<path style="fill:#112563; stroke:none;" d="M144 49C144.839 51.6265 145.374 52.1613 148 53L148 49L144 49z"/>
<path style="fill:#8f9da5; stroke:none;" d="M122 50L123 51L122 50M148.333 50.6667C148.278 50.7222 148.222 51.7778 148.667 51.3333C148.722 51.2778 148.778 50.2222 148.333 50.6667z"/>
<path style="fill:#bdc1c5; stroke:none;" d="M154 50L154 53C154.696 51.4463 154.696 51.5537 154 50z"/>
<path style="fill:#8f9da5; stroke:none;" d="M120 51L121 52L120 51M118 52L119 53L118 52M144 52L145 53L144 52M116 53L117 54L116 53z"/>
<path style="fill:#2f576d; stroke:none;" d="M154 53L155 54L154 53z"/>
<path style="fill:#8f9da5; stroke:none;" d="M114 54L115 55L114 54M112 55L113 56L112 55M109 56L110 57L109 56z"/>
<path style="fill:#bdc1c5; stroke:none;" d="M110 56L111 57L110 56z"/>
<path style="fill:#8f9da5; stroke:none;" d="M153 56L154 57L153 56M106 57L107 58L106 57M99.6667 58.3333C99.2222 58.7778 100.278 58.7222 100.333 58.6667C100.778 58.2222 99.7222 58.2778 99.6667 58.3333z"/>
<path style="fill:#bdc1c5; stroke:none;" d="M101 58C102.248 58.6848 102.548 58.7488 104 59C102.752 58.3152 102.452 58.2512 101 58M152 58L153 59L152 58z"/>
<path style="fill:#8f9da5; stroke:none;" d="M92 59L93 60L92 59M90 60L91 61L90 60M151 60L152 61L151 60z"/>
<path style="fill:#bdc1c5; stroke:none;" d="M89 61L90 62L89 61z"/>
<path style="fill:#8f9da5; stroke:none;" d="M150 61L151 62L150 61M96 62L97 63L96 62z"/>
<path style="fill:#6a4d43; stroke:none;" d="M101 62L102 63L101 62z"/>
<path style="fill:#bdc1c5; stroke:none;" d="M102.667 62.3333C102.222 62.7778 103.278 62.7222 103.333 62.6667C103.778 62.2222 102.722 62.2778 102.667 62.3333M148 62L149 63L148 62M87 63L88 64L87 63z"/>
<path style="fill:#8f9da5; stroke:none;" d="M95 63L96 64L95 63M107.667 63.3333C107.222 63.7778 108.278 63.7222 108.333 63.6667C108.778 63.2222 107.722 63.2778 107.667 63.3333z"/>
<path style="fill:#bdc1c5; stroke:none;" d="M109.667 63.3333C109.222 63.7778 110.278 63.7222 110.333 63.6667C110.778 63.2222 109.722 63.2778 109.667 63.3333M143 63C144.248 63.6848 144.549 63.7488 146 64C144.752 63.3152 144.452 63.2512 143 63z"/>
<path style="fill:#2f576d; stroke:none;" d="M146 63L147 64L146 63z"/>
<path style="fill:#8f9da5; stroke:none;" d="M86 64L87 65L86 64z"/>
<path style="fill:#2f576d; stroke:none;" d="M113 64C114.248 64.6848 114.548 64.7488 116 65C114.752 64.3152 114.452 64.2512 113 64z"/>
<path style="fill:#8f9da5; stroke:none;" d="M116.667 64.3333C116.222 64.7778 117.278 64.7223 117.333 64.6667C117.778 64.2222 116.722 64.2778 116.667 64.3333z"/>
<path style="fill:#bdc1c5; stroke:none;" d="M118 64C119.248 64.6848 119.548 64.7488 121 65C119.752 64.3152 119.452 64.2512 118 64M135 64C136.248 64.6848 136.548 64.7488 138 65C136.752 64.3152 136.452 64.2512 135 64z"/>
<path style="fill:#6a4d43; stroke:none;" d="M138 64C139.248 64.6848 139.548 64.7488 141 65C139.752 64.3152 139.452 64.2512 138 64z"/>
<path style="fill:#8f9da5; stroke:none;" d="M85 66L86 67L85 66z"/>
<path style="fill:#fefefe; stroke:none;" d="M102 66C104.081 71.1129 107.072 72.159 110 67L102 66z"/>
<path style="fill:#bdc1c5; stroke:none;" d="M105 66C106.248 66.6848 106.548 66.7488 108 67C106.752 66.3152 106.452 66.2512 105 66z"/>
<path style="fill:#2f576d; stroke:none;" d="M108.667 66.3333C108.222 66.7778 109.278 66.7222 109.333 66.6667C109.778 66.2222 108.722 66.2778 108.667 66.3333M145 66C145.545 67.6351 145.365 67.4549 147 68L147 66L145 66z"/>
<path style="fill:#8f9da5; stroke:none;" d="M102 67L103 68L102 67M115 68C116.51 68.25 117.436 68.1803 119 68C117.191 67.4257 116.931 67.5347 115 68z"/>
<path style="fill:#6a4d43; stroke:none;" d="M119.667 67.3333C119.222 67.7778 120.278 67.7222 120.333 67.6667C120.778 67.2222 119.722 67.2778 119.667 67.3333z"/>
<path style="fill:#2f576d; stroke:none;" d="M121.667 67.3333C121.222 67.7778 122.278 67.7222 122.333 67.6667C122.778 67.2222 121.722 67.2778 121.667 67.3333z"/>
<path style="fill:#bdc1c5; stroke:none;" d="M143 67L144 68L143 67z"/>
<path style="fill:#8f9da5; stroke:none;" d="M84 68L85 69L84 68z"/>
<path style="fill:#2f576d; stroke:none;" d="M102 68L103 69L102 68z"/>
<path style="fill:#bdc1c5; stroke:none;" d="M109 68L110 69L109 68z"/>
<path style="fill:#fefefe; stroke:none;" d="M116 68C117.845 73.0088 121.155 73.0087 123 68L116 68z"/>
<path style="fill:#bdc1c5; stroke:none;" d="M123 68L124 69L123 68z"/>
<path style="fill:#fefefe; stroke:none;" d="M129 68C130.845 73.0087 134.155 73.0088 136 68L129 68z"/>
<path style="fill:#8f9da5; stroke:none;" d="M136 68L137 69L136 68M95 69L96 70L95 69z"/>
<path style="fill:#2f576d; stroke:none;" d="M123 69L124 70L123 69M103 70L104 71L103 70z"/>
<path style="fill:#8f9da5; stroke:none;" d="M108 70L109 71L108 70z"/>
<path style="fill:#bdc1c5; stroke:none;" d="M116 70L117 71L116 70M122 70L123 71L122 70M129 70L130 71L129 70M135 70L136 71L135 70z"/>
<path style="fill:#8f9da5; stroke:none;" d="M142 70L143 71L142 70z"/>
<path style="fill:#bdc1c5; stroke:none;" d="M145 70L145 73C145.696 71.4463 145.696 71.5537 145 70z"/>
<path style="fill:#8f9da5; stroke:none;" d="M83 71L84 72L83 71M104 71L105 72L104 71M107 71L108 72L107 71z"/>
<path style="fill:#bdc1c5; stroke:none;" d="M142 71L143 72L142 71M96 72L97 73L96 72z"/>
<path style="fill:#2f576d; stroke:none;" d="M105.667 72.3333C105.222 72.7778 106.278 72.7222 106.333 72.6667C106.778 72.2222 105.722 72.2778 105.667 72.3333z"/>
<path style="fill:#8f9da5; stroke:none;" d="M117 72L118 73L117 72z"/>
<path style="fill:#2f576d; stroke:none;" d="M121 72L122 73L121 72z"/>
<path style="fill:#6a4d43; stroke:none;" d="M130 72L131 73L130 72z"/>
<path style="fill:#8f9da5; stroke:none;" d="M134 72L135 73L134 72z"/>
<path style="fill:#2f576d; stroke:none;" d="M97 73L98 74L97 73z"/>
<path style="fill:#bdc1c5; stroke:none;" d="M118.667 73.3333C118.222 73.7778 119.278 73.7222 119.333 73.6667C119.778 73.2222 118.722 73.2778 118.667 73.3333z"/>
<path style="fill:#8f9da5; stroke:none;" d="M131 73L132 74L131 73z"/>
<path style="fill:#bdc1c5; stroke:none;" d="M132 73L133 74L132 73z"/>
<path style="fill:#8f9da5; stroke:none;" d="M133 73L134 74L133 73z"/>
<path style="fill:#6a4d43; stroke:none;" d="M141 73L142 74L141 73z"/>
<path style="fill:#2f576d; stroke:none;" d="M145 73L146 74L145 73z"/>
<path style="fill:#bdc1c5; stroke:none;" d="M141 74L142 75L141 74z"/>
<path style="fill:#8f9da5; stroke:none;" d="M98 75L99 76L98 75M82 76L82 85C83.2561 82.0059 83.2561 78.9941 82 76z"/>
<path style="fill:#6a4d43; stroke:none;" d="M110 76C111.769 76.7789 113.036 76.9124 115 77C113.231 76.2211 111.964 76.0876 110 76z"/>
<path style="fill:#bdc1c5; stroke:none;" d="M140 76L141 77L140 76z"/>
<path style="fill:#8f9da5; stroke:none;" d="M144 76L145 77L144 76z"/>
<path style="fill:#d56957; stroke:none;" d="M105 78C110.811 83.4349 118.4 84.8085 126 83C120.96 76.6222 112.494 75.785 105 78z"/>
<path style="fill:#6a4d43; stroke:none;" d="M118 77L119 78L118 77z"/>
<path style="fill:#2f576d; stroke:none;" d="M139 77L140 78L139 77M144 77L145 78L144 77z"/>
<path style="fill:#bdc1c5; stroke:none;" d="M100 78L101 79L100 78M101 79L102 80L101 79z"/>
<path style="fill:#6a4d43; stroke:none;" d="M106 79L107 80L106 79z"/>
<path style="fill:#bdc1c5; stroke:none;" d="M138 79L139 80L138 79M143 79L144 80L143 79M102 80L103 81L102 80z"/>
<path style="fill:#8f9da5; stroke:none;" d="M137 80L138 81L137 80M143 80L144 81L143 80z"/>
<path style="fill:#bdc1c5; stroke:none;" d="M103 81L104 82L103 81z"/>
<path style="fill:#6a4d43; stroke:none;" d="M109 81L110 82L109 81M125 81L126 82L125 81z"/>
<path style="fill:#8f9da5; stroke:none;" d="M136 81L137 82L136 81z"/>
<path style="fill:#6a4d43; stroke:none;" d="M55 82C54.282 87.3715 50.9775 90.5983 48.1011 95C41.1558 105.628 33.5846 127.113 48 135L48 131C49.8398 132.717 50.3486 133.566 51 136C54.4744 135.423 55.4235 134.474 56 131C57.4566 132.103 57.8966 132.543 59 134C71.3512 126.463 59.8096 108.47 71 102C69.2025 109.863 70.4063 118.404 68.2106 126C66.7697 130.985 62.4217 133.642 60.6026 138.17C59.6461 140.551 60.0011 143.491 60 146C59.9972 152.18 57.4955 165.121 63.1481 169.258C67.6053 172.52 75.7695 171 81 171L80 164C82.9451 166.407 84.3173 169.795 88 171L87 164L93 169C92.8022 165.335 91.2682 162.513 90.5833 159C89.8854 155.42 90.4174 152.516 89 149C100.41 150.442 110.045 149.563 121 146C118.508 150.311 113.713 151.304 109 152C109 156.691 107.484 164.736 110.742 168.566C114.707 173.227 126.48 171 132 171C131.574 168.531 130.868 166.355 130 164C133.242 165.698 134.274 167.427 135 171L138 171C137.89 168.558 137.572 166.377 137 164C138.954 165.52 140.407 167.104 142 169C143.666 162.082 137.038 157.231 137.001 150C136.959 141.971 140.574 135.655 142.402 128C143.982 121.382 143.484 112.754 142.83 106C142.496 102.541 142.337 94.2866 139.262 92.0671C137.057 90.4762 133.337 92.065 131 92.5756C124.308 94.0378 117.815 94.0004 111 94C91.2682 93.9987 73.1252 89.4361 55 82z"/>
<path style="fill:#2f576d; stroke:none;" d="M105 82L106 83L105 82z"/>
<path style="fill:#6a4d43; stroke:none;" d="M111 82L112 83L111 82M126 82L124 83C125.482 83.7912 126.796 83.8698 126 82z"/>
<path style="fill:#8f9da5; stroke:none;" d="M135 82L136 83L135 82M106 83L107 84L106 83z"/>
<path style="fill:#6a4d43; stroke:none;" d="M114.667 83.3333C114.222 83.7778 115.278 83.7222 115.333 83.6667C115.778 83.2222 114.722 83.2778 114.667 83.3333z"/>
<path style="fill:#bdc1c5; stroke:none;" d="M134 83L135 84L134 83z"/>
<path style="fill:#8f9da5; stroke:none;" d="M142 83L143 84L142 83M108 84L109 85L108 84M132 84L133 85L132 84M110 85L111 86L110 85z"/>
<path style="fill:#2f576d; stroke:none;" d="M111 85L112 86L111 85z"/>
<path style="fill:#8f9da5; stroke:none;" d="M130 85L131 86L130 85z"/>
<path style="fill:#bdc1c5; stroke:none;" d="M141 85L142 86L141 85M113 86L114 87L113 86z"/>
<path style="fill:#8f9da5; stroke:none;" d="M114 86L115 87L114 86z"/>
<path style="fill:#2f576d; stroke:none;" d="M115 86L116 87L115 86M126 86L127 87L126 86z"/>
<path style="fill:#8f9da5; stroke:none;" d="M127 86L128 87L127 86z"/>
<path style="fill:#6a4d43; stroke:none;" d="M141 86L142 87L141 86z"/>
<path style="fill:#bdc1c5; stroke:none;" d="M117 87C119.052 87.8742 120.747 87.9528 123 88C120.948 87.1258 119.253 87.0472 117 87M83 88L84 89L83 88z"/>
<path style="fill:#8f9da5; stroke:none;" d="M140 88L141 89L140 88M83.3333 89.6667C83.2778 89.7222 83.2222 90.7778 83.6667 90.3333C83.7222 90.2778 83.7778 89.2222 83.3333 89.6667z"/>
<path style="fill:#bdc1c5; stroke:none;" d="M138 90L139 91L138 90z"/>
<path style="fill:#8f9da5; stroke:none;" d="M139 90L140 91L139 90M84 91C85.2484 91.6848 85.5484 91.7488 87 92C85.7517 91.3152 85.4516 91.2512 84 91z"/>
<path style="fill:#bdc1c5; stroke:none;" d="M135 91L136 92L135 91z"/>
<path style="fill:#8f9da5; stroke:none;" d="M90 92C91.2484 92.6848 91.5484 92.7488 93 93C91.7516 92.3152 91.4516 92.2512 90 92z"/>
<path style="fill:#bdc1c5; stroke:none;" d="M130.667 92.3333C130.222 92.7778 131.278 92.7222 131.333 92.6667C131.778 92.2222 130.722 92.2778 130.667 92.3333z"/>
<path style="fill:#8f9da5; stroke:none;" d="M100 93C101.248 93.6848 101.548 93.7488 103 94C101.752 93.3152 101.452 93.2512 100 93z"/>
<path style="fill:#bdc1c5; stroke:none;" d="M103.667 93.3333C103.222 93.7778 104.278 93.7222 104.333 93.6667C104.778 93.2222 103.722 93.2778 103.667 93.3333M122 93C123.248 93.6848 123.548 93.7488 125 94C123.752 93.3152 123.452 93.2512 122 93z"/>
<path style="fill:#8f9da5; stroke:none;" d="M125.667 93.3333C125.222 93.7777 126.278 93.7222 126.333 93.6667C126.778 93.2222 125.722 93.2778 125.667 93.3333z"/>
<path style="fill:#6a4d43; stroke:none;" d="M144 94C144.119 99.7462 145.71 105.277 145.961 111C146.327 119.365 145.202 126.827 144 135C152.869 134.514 156.3 128.38 155.96 120C155.592 110.925 150.201 100.48 144 94z"/>
<path style="fill:#2f576d; stroke:none;" d="M68.3333 124.667C68.2778 124.722 68.2222 125.778 68.6667 125.333C68.7222 125.278 68.7778 124.222 68.3333 124.667M26 125C28.8728 131.9 32.7259 138.202 31.8148 146C31.3229 150.211 29.3247 154.026 28 158C31.6395 156.921 34.7982 155.32 37.4715 152.532C39.4432 150.476 40.6828 147.499 43.2099 146.028C46.8648 143.9 52.9125 145 57 145L57 139C51.4651 138.984 45.9275 138.218 41.1698 135.077C35.5983 131.399 33.0612 126.279 26 125M141.333 130.667C141.278 130.722 141.222 131.778 141.667 131.333C141.722 131.278 141.778 130.222 141.333 130.667M58.3333 132.667C58.2778 132.722 58.2222 133.778 58.6667 133.333C58.7222 133.278 58.7778 132.222 58.3333 132.667M143 138L143 141C143.696 139.446 143.696 139.554 143 138M137 141L137 158C138.883 153.514 138.883 145.486 137 141M134 167L134 170C134.696 168.446 134.696 168.554 134 167z"/>
</svg>
